<svg xmlns="http://www.w3.org/2000/svg" xmlns:xlink="http://www.w3.org/1999/xlink" version="1.1" width="1000" height="1000" viewBox="0 0 1000 1000" xml:space="preserve">
<desc>Created with Fabric.js 3.5.0</desc>
<defs>
</defs>
<rect x="0" y="0" width="100%" height="100%" fill="#ffffff"/>
<g transform="matrix(14.2045 0 0 14.2045 499.9985 499.9985)" id="314895">
<g style="" vector-effect="non-scaling-stroke">
		<g transform="matrix(1 0 0 1 0.687 -5.5715)">
<path style="stroke: none; stroke-width: 1; stroke-dasharray: none; stroke-linecap: butt; stroke-dashoffset: 0; stroke-linejoin: miter; stroke-miterlimit: 4; is-custom-font: none; font-file-url: none; fill: rgb(0,0,0); fill-rule: nonzero; opacity: 1;" transform=" translate(-32.687, -26.4285)" d="M 36.604 23.043 c -0.623 -0.342 -1.559 -0.512 -2.805 -0.512 h -6.693 v 7.795 h 6.525 c 1.295 0 2.268 -0.156 2.916 -0.473 c 1.146 -0.551 1.721 -1.639 1.721 -3.268 c 0 -1.757 -0.555 -2.939 -1.664 -3.542" stroke-linecap="round"/>
</g>
		<g transform="matrix(1 0 0 1 0.001 0)">
<path style="stroke: none; stroke-width: 1; stroke-dasharray: none; stroke-linecap: butt; stroke-dashoffset: 0; stroke-linejoin: miter; stroke-miterlimit: 4; is-custom-font: none; font-file-url: none; fill: rgb(0,0,0); fill-rule: nonzero; opacity: 1;" transform=" translate(-32.001, -32)" d="M 32.002 2 C 15.434 2 2 15.432 2 32 s 13.434 30 30.002 30 s 30 -13.432 30 -30 s -13.432 -30 -30 -30 m 12.82 44.508 h -6.693 a 20.582 20.582 0 0 1 -0.393 -1.555 a 14.126 14.126 0 0 1 -0.256 -2.5 l -0.041 -2.697 c -0.023 -1.85 -0.344 -3.084 -0.959 -3.701 c -0.613 -0.615 -1.766 -0.924 -3.453 -0.924 h -5.922 v 11.377 H 21.18 V 17.492 h 13.879 c 1.984 0.039 3.51 0.289 4.578 0.748 s 1.975 1.135 2.717 2.027 a 9.07 9.07 0 0 1 1.459 2.441 c 0.357 0.893 0.537 1.908 0.537 3.051 c 0 1.379 -0.348 2.732 -1.043 4.064 s -1.844 2.273 -3.445 2.826 c 1.338 0.537 2.287 1.303 2.844 2.293 c 0.559 0.99 0.838 2.504 0.838 4.537 v 1.949 c 0 1.324 0.053 2.225 0.16 2.697 c 0.16 0.748 0.533 1.299 1.119 1.652 v 0.731 z" stroke-linecap="round"/>
</g>
</g>
</g>
<g transform="matrix(1 0 0 1 500 661.4812)" style="" id="342769">
		
<path xml:space="preserve" font-family="Lato" font-size="239" font-style="normal" font-weight="bold" style="stroke: none; stroke-width: 0; stroke-dasharray: none; stroke-linecap: butt; stroke-dashoffset: 0; stroke-linejoin: miter; stroke-miterlimit: 4; is-custom-font: none; font-file-url: none; fill: rgb(255,255,255); fill-rule: nonzero; opacity: 1; white-space: pre;" d="M54.61-81.47L46.72-66.29Q45.41-63.66 43.68-62.58Q41.94-61.51 39.55-61.51L39.55-61.51Q37.16-61.51 34.18-63.36Q31.19-65.21 27.13-67.48Q23.06-69.75 17.63-71.61Q12.19-73.46 4.78-73.46L4.78-73.46Q-1.91-73.46-6.87-71.85Q-11.83-70.23-15.24-67.36Q-18.64-64.50-20.31-60.49Q-21.99-56.49-21.99-51.71L-21.99-51.71Q-21.99-45.62-18.58-41.55Q-15.18-37.49-9.56-34.62Q-3.94-31.75 3.23-29.48Q10.40-27.21 17.87-24.64Q25.33-22.07 32.50-18.67Q39.67-15.26 45.29-10.06Q50.91-4.87 54.31 2.66Q57.72 10.19 57.72 20.95L57.72 20.95Q57.72 32.66 53.72 42.87Q49.71 53.09 42.00 60.68Q34.30 68.27 23.18 72.63Q12.07 76.99-2.27 76.99L-2.27 76.99Q-10.52 76.99-18.52 75.38Q-26.53 73.77-33.88 70.78Q-41.23 67.79-47.62 63.61Q-54.01 59.42-59.03 54.29L-59.03 54.29L-49.71 38.87Q-48.40 37.20-46.55 36.06Q-44.69 34.93-42.42 34.93L-42.42 34.93Q-39.44 34.93-35.97 37.38Q-32.50 39.83-27.78 42.81Q-23.06 45.80-16.67 48.25Q-10.28 50.70-1.31 50.70L-1.31 50.70Q12.43 50.70 19.96 44.19Q27.49 37.68 27.49 25.49L27.49 25.49Q27.49 18.68 24.08 14.37Q20.67 10.07 15.06 7.14Q9.44 4.22 2.27 2.18Q-4.90 0.15-12.31-2.24Q-19.72-4.63-26.89-7.97Q-34.06-11.32-39.67-16.70Q-45.29-22.07-48.70-30.14Q-52.10-38.21-52.10-50.04L-52.10-50.04Q-52.10-59.48-48.34-68.44Q-44.57-77.40-37.34-84.33Q-30.11-91.26-19.60-95.45Q-9.08-99.63 4.42-99.63L4.42-99.63Q19.72-99.63 32.62-94.85Q45.53-90.07 54.61-81.47L54.61-81.47Z"/></g>
</svg>